<svg width="188" height="31" fill="none" xmlns="http://www.w3.org/2000/svg"><path d="M14.337 17.053c0 1.933-.698 3.457-2.095 4.57-1.387 1.113-3.32 1.67-5.8 1.67-2.286 0-4.307-.43-6.065-1.29v-4.218c1.445.645 2.666 1.099 3.662 1.363 1.006.263 1.924.395 2.754.395.996 0 1.758-.19 2.285-.571.537-.381.806-.948.806-1.7 0-.42-.117-.79-.352-1.113-.234-.332-.58-.65-1.04-.952-.449-.303-1.372-.786-2.768-1.45-1.309-.615-2.29-1.206-2.945-1.773a6.654 6.654 0 0 1-1.567-1.977C.822 9.255.626 8.376.626 7.37c0-1.894.64-3.384 1.919-4.468C3.834 1.818 5.61 1.276 7.877 1.276c1.113 0 2.173.132 3.179.396 1.015.264 2.075.635 3.178 1.113l-1.464 3.53c-1.143-.468-2.09-.795-2.842-.981a9.036 9.036 0 0 0-2.198-.278c-.859 0-1.518.2-1.977.6-.46.4-.689.923-.689 1.568 0 .4.093.752.279 1.054.185.293.478.581.879.865.41.273 1.372.771 2.885 1.494 2.002.957 3.374 1.919 4.117 2.886.742.957 1.113 2.133 1.113 3.53ZM34.784 23h-4.467v-9.565c0-2.364-.88-3.545-2.637-3.545-1.25 0-2.153.425-2.71 1.274-.557.85-.835 2.227-.835 4.13V23h-4.468V.207h4.468v4.644c0 .36-.034 1.21-.103 2.548l-.102 1.319h.234c.996-1.602 2.578-2.403 4.746-2.403 1.924 0 3.384.518 4.38 1.553s1.494 2.52 1.494 4.453V23Zm9.96-8.218c0 1.621.263 2.847.79 3.677.538.83 1.407 1.245 2.608 1.245 1.191 0 2.046-.41 2.563-1.23.528-.83.791-2.06.791-3.692 0-1.62-.263-2.837-.79-3.647-.528-.81-1.392-1.216-2.593-1.216-1.192 0-2.051.405-2.578 1.216-.528.8-.791 2.016-.791 3.647Zm11.323 0c0 2.666-.703 4.751-2.11 6.255-1.406 1.504-3.364 2.256-5.874 2.256-1.572 0-2.959-.342-4.16-1.025-1.2-.694-2.124-1.685-2.768-2.974-.645-1.29-.967-2.793-.967-4.512 0-2.676.698-4.756 2.095-6.24 1.396-1.484 3.359-2.227 5.888-2.227 1.573 0 2.96.342 4.16 1.026 1.202.683 2.124 1.665 2.769 2.944.645 1.28.967 2.778.967 4.497Zm14.485 8.511c-1.924 0-3.432-.698-4.526-2.095h-.234c.156 1.367.234 2.158.234 2.373v6.636h-4.468V6.623h3.633l.63 2.124h.205c1.045-1.621 2.593-2.432 4.644-2.432 1.933 0 3.447.747 4.54 2.242 1.094 1.494 1.641 3.569 1.641 6.225 0 1.748-.259 3.267-.776 4.556-.508 1.289-1.236 2.27-2.183 2.944-.947.674-2.06 1.011-3.34 1.011ZM69.234 9.89c-1.103 0-1.91.341-2.417 1.025-.508.674-.771 1.792-.791 3.355v.483c0 1.758.259 3.017.776 3.78.528.76 1.358 1.142 2.49 1.142 2.002 0 3.004-1.65 3.004-4.951 0-1.612-.25-2.818-.748-3.619-.488-.81-1.26-1.215-2.314-1.215Z" fill="#2D2D2D"/><path d="M102.133 12.263c0 3.545-.879 6.27-2.637 8.173-1.758 1.905-4.277 2.857-7.559 2.857-3.28 0-5.8-.952-7.558-2.857-1.758-1.904-2.637-4.638-2.637-8.203 0-3.564.879-6.284 2.637-8.159 1.767-1.885 4.297-2.827 7.588-2.827 3.29 0 5.805.947 7.543 2.842 1.749 1.894 2.623 4.619 2.623 8.174Zm-15.63 0c0 2.392.454 4.194 1.362 5.405.908 1.21 2.266 1.816 4.072 1.816 3.623 0 5.435-2.407 5.435-7.221 0-4.825-1.802-7.237-5.405-7.237-1.807 0-3.17.61-4.087 1.831-.918 1.211-1.377 3.013-1.377 5.406ZM123.137 23h-4.468v-9.565c0-1.182-.21-2.066-.63-2.652-.42-.595-1.089-.893-2.007-.893-1.25 0-2.153.42-2.71 1.26-.556.83-.835 2.211-.835 4.145V23h-4.467V6.623h3.413l.6 2.095h.249a4.684 4.684 0 0 1 2.051-1.787c.879-.41 1.875-.616 2.988-.616 1.905 0 3.35.518 4.336 1.553.987 1.026 1.48 2.51 1.48 4.453V23Zm10.867 0h-4.468V.207h4.468V23Zm6.312-20.61c0-1.455.81-2.183 2.431-2.183 1.622 0 2.432.728 2.432 2.183 0 .693-.205 1.235-.615 1.626-.401.38-1.006.57-1.817.57-1.621 0-2.431-.732-2.431-2.196ZM144.974 23h-4.468V6.623h4.468V23Zm21.619 0h-4.467v-9.565c0-1.182-.21-2.066-.63-2.652-.42-.595-1.089-.893-2.007-.893-1.25 0-2.153.42-2.71 1.26-.557.83-.835 2.211-.835 4.145V23h-4.468V6.623h3.413l.601 2.095h.249a4.684 4.684 0 0 1 2.051-1.787c.879-.41 1.875-.616 2.988-.616 1.904 0 3.35.518 4.336 1.553.986 1.026 1.479 2.51 1.479 4.453V23Zm13.182-13.506c-.947 0-1.689.303-2.226.908-.537.596-.845 1.446-.923 2.55h6.269c-.019-1.104-.307-1.954-.864-2.55-.557-.605-1.309-.908-2.256-.908Zm.63 13.799c-2.637 0-4.697-.728-6.182-2.183-1.484-1.455-2.226-3.515-2.226-6.181 0-2.744.683-4.864 2.051-6.358 1.377-1.504 3.276-2.256 5.698-2.256 2.314 0 4.116.66 5.405 1.978 1.289 1.318 1.934 3.14 1.934 5.464v2.168h-10.562c.049 1.27.425 2.26 1.128 2.973.703.713 1.69 1.07 2.959 1.07.986 0 1.919-.103 2.798-.308a14 14 0 0 0 2.754-.981v3.457c-.781.39-1.616.678-2.505.864-.889.195-1.973.293-3.252.293Z" fill="#3670C7"/></svg>