<svg width="33" height="33" fill="none" xmlns="http://www.w3.org/2000/svg"><g clip-path="url(#a)"><path d="M22.688 4.125c-2.393 0-4.69 1.114-6.188 2.874-1.499-1.76-3.795-2.874-6.188-2.874-4.234 0-7.562 3.327-7.562 7.563 0 5.197 4.675 9.432 11.756 15.867l1.994 1.801 1.994-1.815C25.575 21.12 30.25 16.885 30.25 11.687c0-4.234-3.328-7.562-7.563-7.562Zm-6.05 21.381-.138.138-.137-.138C9.818 19.58 5.5 15.661 5.5 11.687c0-2.75 2.063-4.812 4.813-4.812 2.117 0 4.18 1.361 4.908 3.245h2.572c.715-1.884 2.777-3.245 4.895-3.245 2.75 0 4.812 2.063 4.812 4.813 0 3.973-4.317 7.892-10.863 13.818Z" fill="#3670C7"/></g><defs><clipPath id="a"><path fill="#fff" d="M0 0h33v33H0z"/></clipPath></defs></svg>