<?xml version="1.0" encoding="utf-8"?><svg viewBox="0 0 1158 720" xmlns="http://www.w3.org/2000/svg" xmlns:xlink="http://www.w3.org/1999/xlink"><style>:root>svg{display:none}:root>svg:target{display:block}</style><svg fill="none" viewBox="0 0 1158 720" id="fire" xmlns="http://www.w3.org/2000/svg"><g opacity=".3"><path d="M404.358 1061.64c-322.162 0-362.77-211.752-348.38-318.488C77.75 581.656 256.296 496.435 282.423 447.096c26.129-49.364 0-121.129 0-121.129S469.68 451.581 386.939 581.656C304.2 711.755 452.261 868.767 482.743 774.55c30.485-94.192 4.356-165.982 4.356-165.982s108.868 31.397 126.287 197.379c17.418 165.982-165.483 255.693-209.028 255.693" fill="#FC0001"/><path d="M643.878 294.535c-163.737 94.88-104.515 210.838-13.066 300.567 112.822 110.675 156.773 287.096-87.094 363.354-188.255 58.874-108.869 112.154-108.869 112.154s428.397 94.27 579.181-174.967C1144.68 662.379 905.162 415.67 905.162 415.67s30.484 179.432-100.157 165.987c-112.495-11.596-115.102-119.603-65.322-215.328C805.005 240.729 683.07 151 683.07 151s30.484 103.174-39.192 143.535" fill="#FC0001"/><path d="M334.685 496.429c-352.738 161.489-317.9 493.432-113.226 569.691 204.675 76.27 365.798-49.34 370.154-170.451 4.354-121.11-34.839-197.372-34.839-197.372s-60.966 206.337-182.899 103.18c-121.933-103.18-39.19-305.048-39.19-305.048M710.273 608.581c-161.125-62.789-154.468-211.767-116.489-250.085 52.257-52.713 78.924-43.604 103.426-70.641 30.481-33.659 13.063-97.574 13.063-97.574s78.388 88.596 13.065 158.139c-56.331 59.936-69.675 179.417-13.065 260.161" fill="#FB6D01"/><path d="M930.567 462.017c226.443 231.019 103.063 527.838-60.239 583.903-163.305 56.07-189.434 53.84-252.577 17.94-63.145-35.87 17.419-186.145 132.82-213.078 115.401-26.907 58.79-53.815 4.356-116.624-54.438-62.809-34.115-183.919-34.115-183.919s83.467 94.962 161.856 58.325c74.744-34.946 47.899-146.547 47.899-146.547" fill="#FB6D01"/><path d="M772.326 637.748C730.957 776.817 944.34 803.735 916.033 911.387c-28.307 107.653-235.156 134.573-235.156 134.573s253.48 50.98 330.963-116.627c65.32-141.318-54.438-208.603-137.178-215.327-97.891-7.965-102.336-76.258-102.336-76.258" fill="#EFA204"/><path d="M957.416 508.384c148.064 189.147 51.314 310.91-10.161 250.452-61.473-60.433 50.079-144.288 10.161-250.452ZM265.002 563.727C27.67 740.909 45.814 922.604 163.392 1021.29c117.578 98.68 317.17 96.43 365.072-22.43 47.902-118.885-28.306-139.066-172.013-170.471-143.704-31.405-91.449-264.662-91.449-264.662ZM667.815 678.119c115.398 91.957 154.589 192.884 111.045 282.615-43.549 89.706-235.156 125.596-204.674 20.167 30.485-105.401 124.11-125.591 124.11-204.103 0-78.489-30.481-98.679-30.481-98.679Z" fill="#EFA204"/><path d="M201.868 646.687c-158.947 181.68-82.013 385.023 18.146 411.953 100.159 26.93 249.673-30.64 260.559-93.446 10.888-62.804-6.532-94.218-6.532-94.218s23.954 31.414-58.788 76.267c-82.741 44.853-100.159 33.634-100.159 33.634s43.545-62.804-54.435-170.46c-97.983-107.657-58.791-163.73-58.791-163.73M532.828 705.01c67.498 96.434 28.307 195.147 28.307 195.147s0-38.137-32.662-76.273c-32.66-38.136 4.355-118.874 4.355-118.874ZM933.463 971.922c105.907-87.272 74.037-177.185-8.71-217.572-82.738-40.364-89.272-29.16-89.272-29.16s65.239 72.899 82.74 107.661c30.484 60.569 10.886 139.071-65.32 179.439-76.211 40.38 26.128 4.5 80.562-40.368ZM687.42 316.992c-82.74 51.579-132.822 85.228-113.226 165.987 25.051 103.209 113.226 98.688 113.226 98.688s-56.612-56.074-50.082-125.608c6.533-69.533 50.082-139.067 50.082-139.067Z" fill="#FACF67"/><path d="M815.879 523.351c67.498-67.281 17.161-95.291 6.531-148.043-7.981-39.628 19.597-80.736 19.597-80.736s-70.463 71.799-41.37 118.117c47.904 76.268 15.242 110.662 15.242 110.662Z" fill="#FC0001"/><path d="M386.937 363.359c17.419 53.839 16.564 81.637-23.226 130.077-79.838 97.206-17.419 162.998-18.871 158.503-1.451-4.47-7.825-95.348 42.097-136.053 69.674-56.827 0-152.527 0-152.527" fill="#FCE8B3"/><path d="M430.493 660.895c-27.58 59.822-2.903 91.212-2.903 91.212l2.903-91.212Z" fill="#FC0001"/><path d="M986.452 622.014c65.318 68.785 78.388 134.584 24.678 234.751 7.26-46.343-37.74-80.736-37.74-80.736s42.39-37.357 40.64-73.279c-1.45-29.9-27.578-80.736-27.578-80.736" fill="#FCE8B3"/><path d="M959.586 752.882c28.305-75.522-24.677-103.188-65.322-130.107-40.644-26.894-37.741-97.93-37.741-97.93s-51.528 51.595-21.047 127.092c22.336 55.333 124.11 100.945 124.11 100.945Z" fill="#FACF67"/></g><g filter="url(#aa)"><circle cx="579" cy="492" r="229" fill="red"/></g><defs><filter id="aa" x="0" y="-87" width="1158" height="1158" filterUnits="userSpaceOnUse" color-interpolation-filters="sRGB"><feFlood flood-opacity="0" result="BackgroundImageFix"/><feBlend in="SourceGraphic" in2="BackgroundImageFix" result="shape"/><feGaussianBlur stdDeviation="175" result="effect1_foregroundBlur_102_863"/></filter></defs></svg><svg fill="none" viewBox="0 0 98 66" id="logo" xmlns="http://www.w3.org/2000/svg"><path fill-rule="evenodd" clip-rule="evenodd" d="M48.76.936a.7.7 0 0 0-1.4.013l.083 9.013a40.226 40.226 0 0 0-4.521.444c-.65.1-1.293.216-1.928.345L38.67 2.658a.7.7 0 0 0-1.346.386l2.3 8.009a45.736 45.736 0 0 0-7.277 2.4l-4.454-6.154a.7.7 0 0 0-1.134.82l4.278 5.912a48.173 48.173 0 0 0-6.713 3.762l-4.066-3.826a.7.7 0 1 0-.96 1.02l3.85 3.623a38.823 38.823 0 0 0-3.583 2.899.7.7 0 0 0 .948 1.03c4.543-4.174 12.77-9.222 22.623-10.75 9.82-1.523 21.283.443 32.395 10.324a.7.7 0 0 0 .93-1.046 51.906 51.906 0 0 0-3.793-3.072l3.798-3.433a.7.7 0 1 0-.94-1.039L71.5 17.164a43.605 43.605 0 0 0-6.225-3.584l4.011-5.82a.7.7 0 0 0-1.153-.795l-4.158 6.033a38.347 38.347 0 0 0-7.494-2.331l2.318-8.233a.7.7 0 1 0-1.347-.38l-2.354 8.361a37.863 37.863 0 0 0-6.254-.485L48.76.936Zm-27.855 28.06.133-.118-.134-.119c4.567-5.124 12.735-11.28 22.43-13.056 9.628-1.764 20.663.811 31.032 12.744l.429.363-.058.068.058.067-.428.364c-10.37 11.933-21.405 14.507-31.032 12.744-9.696-1.777-17.864-7.932-22.43-13.056Zm22.682 11.68c-8.8-1.613-16.352-7.014-20.89-11.798 4.538-4.785 12.09-10.186 20.89-11.798 8.982-1.645 19.36.637 29.294 11.798-9.934 11.16-20.312 13.443-29.294 11.797Zm13.311-11.538a8.924 8.924 0 1 1-17.848 0 8.924 8.924 0 0 1 17.848 0Zm1.4 0c0 5.702-4.622 10.324-10.324 10.324-5.701 0-10.324-4.622-10.324-10.324s4.623-10.324 10.324-10.324c5.702 0 10.324 4.622 10.324 10.324Zm-10.497 4.066a4.066 4.066 0 1 0 0-8.131 4.066 4.066 0 0 0 0 8.13Zm0 1.4a5.466 5.466 0 1 0 0-10.931 5.466 5.466 0 0 0 0 10.93Z" fill="#FF9533"/><path d="M9.552 56.176c.64.203 1.141.544 1.504 1.024.363.47.544 1.05.544 1.744 0 .981-.384 1.739-1.152 2.272-.757.523-1.867.784-3.328.784H1.328V50.8H6.8c1.365 0 2.41.261 3.136.784.736.523 1.104 1.232 1.104 2.128a2.69 2.69 0 0 1-.4 1.456 2.689 2.689 0 0 1-1.088 1.008Zm-5.648-3.424v2.64H6.48c.64 0 1.125-.112 1.456-.336.33-.224.496-.555.496-.992 0-.437-.165-.763-.496-.976-.33-.224-.816-.336-1.456-.336H3.904Zm3.024 7.296c.683 0 1.195-.112 1.536-.336.352-.224.528-.57.528-1.04 0-.928-.688-1.392-2.064-1.392H3.904v2.768h3.024Zm6.458-6.656h2.496V62h-2.496v-8.608Zm1.248-1.2c-.458 0-.832-.133-1.12-.4a1.297 1.297 0 0 1-.432-.992c0-.395.144-.725.432-.992.288-.267.662-.4 1.12-.4.459 0 .832.128 1.12.384.288.256.432.576.432.96 0 .416-.144.763-.432 1.04-.288.267-.661.4-1.12.4Zm12.445 1.2v7.168c0 1.579-.41 2.752-1.232 3.52-.822.768-2.021 1.152-3.6 1.152a9.002 9.002 0 0 1-2.368-.304c-.747-.203-1.366-.496-1.856-.88l.992-1.792c.363.299.821.533 1.376.704.555.181 1.11.272 1.664.272.864 0 1.498-.197 1.904-.592.416-.384.624-.97.624-1.76v-.368c-.65.715-1.557 1.072-2.72 1.072-.79 0-1.515-.17-2.176-.512a4.036 4.036 0 0 1-1.552-1.472c-.384-.63-.576-1.355-.576-2.176 0-.821.192-1.547.576-2.176a3.92 3.92 0 0 1 1.552-1.456 4.558 4.558 0 0 1 2.176-.528c1.248 0 2.197.41 2.848 1.232v-1.104h2.368Zm-4.72 6.144c.661 0 1.2-.192 1.616-.576.426-.395.64-.907.64-1.536 0-.63-.213-1.136-.64-1.52-.416-.395-.955-.592-1.616-.592-.662 0-1.206.197-1.632.592-.427.384-.64.89-.64 1.52s.213 1.141.64 1.536c.427.384.97.576 1.632.576Zm19.974-3.36c.64.203 1.142.544 1.504 1.024.363.47.544 1.05.544 1.744 0 .981-.384 1.739-1.152 2.272-.757.523-1.866.784-3.328.784H34.11V50.8h5.472c1.366 0 2.41.261 3.136.784.736.523 1.104 1.232 1.104 2.128a2.69 2.69 0 0 1-.4 1.456 2.689 2.689 0 0 1-1.088 1.008Zm-5.648-3.424v2.64h2.576c.64 0 1.126-.112 1.456-.336.33-.224.496-.555.496-.992 0-.437-.165-.763-.496-.976-.33-.224-.816-.336-1.456-.336h-2.576Zm3.024 7.296c.683 0 1.195-.112 1.536-.336.352-.224.528-.57.528-1.04 0-.928-.688-1.392-2.064-1.392h-3.024v2.768h3.024Zm8.843-5.52c.298-.416.698-.73 1.2-.944.512-.213 1.098-.32 1.76-.32v2.304a9.034 9.034 0 0 0-.56-.032c-.715 0-1.275.203-1.68.608-.406.395-.608.992-.608 1.792V62h-2.496v-8.608h2.384v1.136Zm8.462 7.6c-.907 0-1.723-.187-2.448-.56a4.293 4.293 0 0 1-1.68-1.584c-.406-.672-.608-1.435-.608-2.288 0-.853.202-1.616.608-2.288a4.18 4.18 0 0 1 1.68-1.568c.725-.384 1.541-.576 2.448-.576.906 0 1.717.192 2.432.576a4.18 4.18 0 0 1 1.68 1.568c.405.672.608 1.435.608 2.288 0 .853-.203 1.616-.608 2.288a4.292 4.292 0 0 1-1.68 1.584c-.715.373-1.526.56-2.432.56Zm0-2.048c.64 0 1.162-.213 1.568-.64.416-.437.624-1.019.624-1.744 0-.725-.208-1.301-.624-1.728-.406-.437-.928-.656-1.568-.656s-1.168.219-1.584.656c-.416.427-.624 1.003-.624 1.728 0 .725.208 1.307.624 1.744.416.427.944.64 1.584.64Zm11.94 1.504c-.245.181-.55.32-.912.416a4.742 4.742 0 0 1-1.12.128c-1.024 0-1.819-.261-2.384-.784-.555-.523-.832-1.29-.832-2.304v-3.536h-1.328v-1.92h1.328v-2.096h2.496v2.096h2.144v1.92h-2.144v3.504c0 .363.09.645.272.848.192.192.459.288.8.288.395 0 .73-.107 1.008-.32l.672 1.76Zm6.633-8.32c1.067 0 1.925.32 2.576.96.662.64.992 1.59.992 2.848V62H76.66v-4.544c0-.683-.15-1.19-.448-1.52-.299-.341-.73-.512-1.296-.512-.63 0-1.13.197-1.504.592-.373.384-.56.96-.56 1.728V62h-2.496V50.128h2.496v4.16c.33-.33.73-.581 1.2-.752.47-.181.981-.272 1.536-.272Zm14.356 4.464c0 .032-.016.256-.048.672h-6.512c.118.533.395.955.832 1.264.438.31.982.464 1.632.464.448 0 .843-.064 1.184-.192.352-.139.678-.352.976-.64l1.328 1.44c-.81.928-1.994 1.392-3.552 1.392-.97 0-1.829-.187-2.576-.56-.746-.384-1.322-.912-1.728-1.584-.405-.672-.608-1.435-.608-2.288 0-.843.198-1.6.592-2.272a4.2 4.2 0 0 1 1.648-1.584c.704-.384 1.488-.576 2.352-.576.843 0 1.606.181 2.288.544a3.905 3.905 0 0 1 1.6 1.568c.395.672.592 1.456.592 2.352Zm-4.464-2.576c-.565 0-1.04.16-1.424.48-.384.32-.618.757-.704 1.312h4.24c-.085-.544-.32-.976-.704-1.296-.384-.33-.853-.496-1.408-.496Zm8.51-.624c.299-.416.699-.73 1.2-.944.512-.213 1.099-.32 1.76-.32v2.304a9.034 9.034 0 0 0-.56-.032c-.715 0-1.274.203-1.68.608-.405.395-.608.992-.608 1.792V62h-2.496v-8.608h2.384v1.136Z" fill="#FF9533"/></svg></svg>